<?xml version="1.0" ?><svg id="Layer_1" style="enable-background:new 0 0 48 48;" version="1.1" viewBox="0 0 48 48" xml:space="preserve" xmlns="http://www.w3.org/2000/svg" xmlns:xlink="http://www.w3.org/1999/xlink"><style type="text/css">
	.st0{fill:#FF4676;}
	.st1{fill:#0F1C70;}
	.st2{fill:#FFE92E;}
	.st3{fill:#17D5D1;}
	.st4{fill:#FFFFFF;}
	.st5{fill:#EA2461;}
	.st6{fill:#F2F2F2;}
</style><g><g><g><g><g><g><circle class="st3" cx="24" cy="24" r="24"/></g></g></g></g></g><g><g><g><path class="st2" d="M6.6,24.1c0,3.1,1.6,5.9,4.3,7.9v7.7l6.4-5c1.1,0.2,2.2,0.3,3.3,0.3c7.7,0,14-4.9,14-10.9      s-6.3-10.9-14-10.9S6.6,18,6.6,24.1z"/></g></g><g><g><path class="st4" d="M42.1,18.6c0,3.1-1.6,5.9-4.3,7.9v7.7l-6.4-5c-1.1,0.2-2.2,0.3-3.3,0.3c-7.7,0-14-4.9-14-10.9      s6.3-10.9,14-10.9S42.1,12.6,42.1,18.6z"/></g><g><circle class="st1" cx="21.6" cy="18.6" r="2"/><circle class="st1" cx="28.1" cy="18.6" r="2"/><circle class="st1" cx="34.6" cy="18.6" r="2"/></g></g></g></g></svg>